<?xml version="1.0" encoding="UTF-8" standalone="no"?>
<svg width="18px" height="18px" viewBox="0 0 18 18" version="1.1" xmlns="http://www.w3.org/2000/svg" xmlns:xlink="http://www.w3.org/1999/xlink" xmlns:sketch="http://www.bohemiancoding.com/sketch/ns">
    <!-- Generator: Sketch 3.3.3 (12072) - http://www.bohemiancoding.com/sketch -->
    <title>search-blue</title>
    <desc>Created with Sketch.</desc>
    <defs></defs>
    <g id="Even-Neater-Bookmarks" stroke="none" stroke-width="1" fill="none" fill-rule="evenodd" sketch:type="MSPage">
        <g id="search-blue" sketch:type="MSArtboardGroup" fill="#3498DB">
            <path d="M8,12 C10.7614237,12 13,9.76142375 13,7 C13,4.23857625 10.7614237,2 8,2 C5.23857625,2 3,4.23857625 3,7 C3,9.76142375 5.23857625,12 8,12 Z M8,11 C10.209139,11 12,9.209139 12,7 C12,4.790861 10.209139,3 8,3 C5.790861,3 4,4.790861 4,7 C4,9.209139 5.790861,11 8,11 Z" id="Oval-1" sketch:type="MSShapeGroup"></path>
            <rect id="Rectangle-9" sketch:type="MSShapeGroup" transform="translate(13.500000, 12.000000) rotate(-45.000000) translate(-13.500000, -12.000000) " x="13" y="9" width="1" height="6"></rect>
        </g>
    </g>
</svg>